<svg width="32" height="32" viewBox="0 0 32 32" fill="none" xmlns="http://www.w3.org/2000/svg">
<circle cx="16" cy="16" r="12" fill="#F1D00B"/>
<path d="M18.75 20H16.97L14.84 17.21L14.27 17.83V20H12.89V13.1H14.27V16.43L17.25 13.1H18.89L15.84 16.4L18.75 20Z" fill="#22335F"/>
<path d="M23.59 16.03C23.6033 16.1633 23.6133 16.3067 23.62 16.46C23.6267 16.6067 23.63 16.7867 23.63 17V20H22.25V17.19C22.25 17.0767 22.25 16.96 22.25 16.84C22.25 16.7133 22.2433 16.5833 22.23 16.45C22.21 16.17 22.12 15.9433 21.96 15.77C21.8 15.5967 21.55 15.51 21.21 15.51C21.0433 15.51 20.8867 15.55 20.74 15.63C20.5933 15.7033 20.4667 15.8233 20.36 15.99C20.2533 16.1567 20.1667 16.37 20.1 16.63C20.04 16.8833 20.01 17.1967 20.01 17.57V20H18.63V12.6H20.01V15.54L20.42 14.91C20.6133 14.7767 20.81 14.6833 21.01 14.63C21.2167 14.57 21.4467 14.54 21.7 14.54C22.2667 14.54 22.71 14.6733 23.03 14.94C23.35 15.2 23.5367 15.5633 23.59 16.03Z" fill="#22335F"/>
<path d="M10.5154 17.1681L9.16604 19.0621L7.694 18.8315L12.3777 12.5811L14.1857 12.8643L14.2935 19.8653L12.8215 19.6347L12.8371 17.5318L10.5154 17.1681ZM12.8607 13.8916L11.2275 16.1764L12.8477 16.4302L12.8607 13.8916Z" fill="#22335F"/>
<line x1="12.8441" y1="19.9997" x2="12.8562" y2="12.9998" stroke="#22335F" stroke-width="0.3"/>
<line x1="13.85" y1="20" x2="13.85" y2="12.8" stroke="#22335F" stroke-width="0.3"/>
<line x1="18.7" y1="20" x2="18.7" y2="12.6" stroke="#22335F" stroke-width="0.6"/>
</svg>
