<svg width="1440" height="1024" viewBox="0 0 1440 1024" fill="none" xmlns="http://www.w3.org/2000/svg">
<path d="M759.725 179L1150.65 97H1168.61L1465.5 285.5L1346.11 881.5L1103.63 1094L759.725 1053L618.676 950V785.5L966.281 648.5L994.807 354L759.725 611L372.5 433L691.05 285.5L759.725 179Z" fill="#B39A07"/>
<path d="M213.781 450L119.79 792.257L185.267 977.126L-17.5 1066.06L409.684 1121.02L705.914 1155L854.294 977.126L1046.5 675.84L923.467 450L662.615 675.84H409.684L213.781 450Z" fill="#674F88"/>
<path d="M305.913 -287L-16.5 -84.9781V413.803L208.132 629L468.705 288.951L534.245 555.594L791.119 443.918L881.5 288.951L791.119 31.0904L693.338 142.767L305.913 -287Z" fill="#037076" stroke="#F0F0F0"/>
</svg>
